<svg width="513" height="224" viewBox="0 0 513 224" fill="none" xmlns="http://www.w3.org/2000/svg">
<path d="M102.055 93.8518H70.1406V125.783H102.055V93.8518Z" fill="#119AFF"/>
<path d="M65.8728 191.932C47.6289 191.949 32.7983 177.101 32.7983 158.857C32.7983 140.614 47.646 125.766 65.8728 125.766V93.8518C29.9653 93.8518 0.867188 122.95 0.867188 158.857C0.867188 194.765 29.9653 223.863 65.8728 223.863H102.071V191.932H65.8728Z" fill="#0A0A9F"/>
<path d="M185.637 93.8518C149.713 93.8518 120.598 122.967 120.598 158.857C120.598 194.765 149.713 223.863 185.637 223.863H209.206V191.949H185.637C167.376 191.949 152.512 177.084 152.512 158.874C152.512 140.614 167.376 125.783 185.637 125.783C203.864 125.783 218.712 140.631 218.712 158.874V182.426H250.626V158.874C250.643 122.967 221.545 93.8518 185.637 93.8518Z" fill="#0A0A9F"/>
<path d="M250.644 191.932H218.73V223.863H250.644V191.932Z" fill="#119AFF"/>
<path d="M322.822 94.8586V127.814C310.158 132.473 301.113 144.624 301.113 158.874H301.181V223.897H269.199V158.874C269.199 126.858 292.341 100.235 322.822 94.8586Z" fill="#0A0A9F"/>
<path d="M364.262 95.7292H332.348V127.66H364.262V95.7292Z" fill="#119AFF"/>
<path d="M438.324 191.932H406.41V223.863H438.324V191.932Z" fill="#119AFF"/>
<path d="M512.866 158.84C512.866 164.353 512.183 169.694 510.886 174.814C509.999 178.33 508.821 181.743 507.387 185.003C497.318 207.889 474.449 223.88 447.843 223.88V191.949C455.472 191.949 462.52 189.355 468.101 185.003C471.668 182.255 474.637 178.774 476.839 174.814H384.8C383.503 169.712 382.82 164.37 382.82 158.84C382.82 153.328 383.503 147.986 384.8 142.866C385.687 139.351 386.865 135.937 388.299 132.661C398.368 109.775 421.237 93.8005 447.843 93.8005V125.732C440.214 125.732 433.183 128.309 427.602 132.661C424.036 135.408 421.049 138.89 418.847 142.866H510.886C512.183 147.986 512.866 153.328 512.866 158.84Z" fill="#0A0A9F"/>
<path fill-rule="evenodd" clip-rule="evenodd" d="M272.941 93.8518C288.966 78.7481 310.538 69.464 334.243 69.464C357.948 69.464 379.503 78.7481 395.511 93.8518H397.201H406.826V80.5059C406.826 53.3875 383.803 41.8677 361.6 38.335C349.568 17.241 332.843 0.447754 311.22 0.447754C292.43 0.447754 273.64 0.447754 254.833 0.447754C231.282 0.447754 209.693 17.48 193.156 37.0721H177.915C159.245 37.0721 134.891 42.2261 123.303 58.4221C114.633 56.1864 108.728 70.3685 116.988 74.6522C116.732 76.5124 116.613 78.4579 116.613 80.4888V93.8347H124.361C140.386 78.731 161.958 69.4469 185.663 69.4469C209.369 69.4469 230.923 78.731 246.931 93.8347H272.941V93.8518ZM301.271 19.0671H308.541C322.484 19.0671 328.679 28.8291 335.028 38.1643L301.271 37.9084V19.0671ZM259.851 19.0671H287.14V37.8059L225.274 37.3452C233.603 27.7539 249.133 19.0671 259.851 19.0671Z" fill="#E30F13"/>
</svg>
